M48
; DRILL file {KiCad (5.1.8-0-10_14)} date Wednesday, August 11, 2021 at 10:05:53 PM
; FORMAT={-:-/ absolute / metric / decimal}
; #@! TF.CreationDate,2021-08-11T22:05:53+02:00
; #@! TF.GenerationSoftware,Kicad,Pcbnew,(5.1.8-0-10_14)
; #@! TF.FileFunction,Plated,1,4,PTH
FMAT,2
METRIC
T1C0.250
T2C0.300
T3C0.350
T4C0.400
T5C0.600
T6C3.200
%
G90
G05
T1
X168.7Y-70.3
X168.7Y-71.1
X168.7Y-71.9
X169.5Y-70.3
X169.5Y-71.1
X169.5Y-71.9
X170.3Y-70.3
X170.3Y-71.1
X170.3Y-71.9
T2
X98.25Y-134.7
X98.5Y-71.1
X98.5Y-87.1
X98.5Y-103.1
X98.5Y-119.1
X99.05Y-134.7
X99.5Y-71.1
X99.5Y-87.1
X99.5Y-103.1
X99.5Y-119.1
X99.85Y-134.7
X100.5Y-71.1
X100.5Y-72.5
X100.5Y-73.5
X100.5Y-74.5
X100.5Y-75.5
X100.5Y-76.5
X100.5Y-87.1
X100.5Y-88.5
X100.5Y-89.5
X100.5Y-90.5
X100.5Y-91.5
X100.5Y-92.5
X100.5Y-103.1
X100.5Y-104.5
X100.5Y-105.5
X100.5Y-106.5
X100.5Y-107.5
X100.5Y-108.5
X100.5Y-119.1
X100.5Y-120.5
X100.5Y-121.5
X100.5Y-122.5
X100.5Y-123.5
X100.5Y-124.5
X100.65Y-134.7
X101.45Y-134.7
X101.5Y-71.1
X101.5Y-72.5
X101.5Y-73.5
X101.5Y-74.5
X101.5Y-75.5
X101.5Y-76.5
X101.5Y-87.1
X101.5Y-88.5
X101.5Y-89.5
X101.5Y-90.5
X101.5Y-91.5
X101.5Y-92.5
X101.5Y-103.1
X101.5Y-104.5
X101.5Y-105.5
X101.5Y-106.5
X101.5Y-107.5
X101.5Y-108.5
X101.5Y-119.1
X101.5Y-120.5
X101.5Y-121.5
X101.5Y-122.5
X101.5Y-123.5
X101.5Y-124.5
X102.25Y-134.7
X102.5Y-71.1
X102.5Y-72.5
X102.5Y-73.5
X102.5Y-74.5
X102.5Y-75.5
X102.5Y-76.5
X102.5Y-87.1
X102.5Y-88.5
X102.5Y-89.5
X102.5Y-90.5
X102.5Y-91.5
X102.5Y-92.5
X102.5Y-103.1
X102.5Y-104.5
X102.5Y-105.5
X102.5Y-106.5
X102.5Y-107.5
X102.5Y-108.5
X102.5Y-119.1
X102.5Y-120.5
X102.5Y-121.5
X102.5Y-122.5
X102.5Y-123.5
X102.5Y-124.5
X103.5Y-71.1
X103.5Y-87.1
X103.5Y-119.1
X104.5Y-71.1
X104.5Y-87.1
X107.0Y-55.6
X108.0Y-55.6
X109.0Y-55.6
X109.0Y-57.0
X109.0Y-59.0
X109.0Y-60.0
X109.0Y-61.0
X110.0Y-55.6
X110.0Y-57.0
X110.0Y-59.0
X110.0Y-60.0
X110.0Y-61.0
X111.0Y-55.6
X111.0Y-57.0
X111.0Y-59.0
X111.0Y-60.0
X111.0Y-61.0
X112.0Y-55.6
X113.0Y-55.6
X123.5Y-55.6
X124.5Y-55.6
X125.5Y-55.6
X125.5Y-57.0
X125.5Y-58.0
X125.5Y-59.0
X125.5Y-60.0
X125.5Y-61.0
X126.5Y-55.6
X126.5Y-57.0
X126.5Y-58.0
X126.5Y-59.0
X126.5Y-60.0
X126.5Y-61.0
X127.5Y-55.6
X127.5Y-57.0
X127.5Y-58.0
X127.5Y-59.0
X127.5Y-60.0
X127.5Y-61.0
X128.5Y-55.6
X129.5Y-55.6
X146.0Y-136.75
X147.0Y-136.75
X148.0Y-133.0
X148.0Y-134.0
X148.0Y-134.9
X148.0Y-136.75
X148.6Y-132.4
X148.8Y-137.25
X149.6Y-132.4
X149.6Y-138.05
X150.6Y-132.4
X150.6Y-139.2
X150.7Y-135.8
X151.5Y-135.075
X151.5Y-136.525
X151.6Y-132.4
X151.6Y-139.2
X152.0Y-135.8
X152.6Y-132.4
X152.6Y-139.2
X153.2Y-135.8
X153.6Y-132.4
X153.6Y-139.2
X154.4Y-135.8
X154.6Y-132.4
X154.6Y-139.2
X155.2Y-133.0
X155.2Y-134.0
X155.2Y-135.0
X155.2Y-136.6
X155.2Y-137.6
X155.2Y-138.6
X164.58Y-130.79
T3
X97.5Y-75.135
X97.5Y-91.135
X97.5Y-107.135
X97.6Y-123.135
X104.5Y-101.7
X104.5Y-102.4
X104.5Y-103.1
X105.2Y-101.7
X105.2Y-102.4
X105.2Y-103.1
X105.6Y-72.6
X105.7Y-88.6
X105.9Y-101.7
X105.9Y-102.4
X105.9Y-103.1
X106.0Y-59.635
X106.2Y-139.2
X106.3Y-85.6
X106.3Y-86.3
X106.3Y-87.0
X106.8Y-103.9
X106.9Y-118.0
X106.9Y-118.7
X106.9Y-119.4
X107.0Y-85.6
X107.0Y-86.3
X107.0Y-87.0
X107.6Y-118.0
X107.6Y-118.7
X107.6Y-119.4
X107.7Y-85.6
X107.7Y-86.3
X107.7Y-87.0
X107.8Y-75.3
X107.8Y-91.3
X107.8Y-107.3
X108.25Y-115.6
X108.3Y-118.0
X108.3Y-118.7
X108.3Y-119.4
X108.7Y-75.3
X108.7Y-91.3
X108.7Y-107.3
X109.75Y-73.75
X109.75Y-74.5
X109.75Y-75.25
X109.75Y-76.0
X109.75Y-90.0
X109.75Y-90.75
X109.75Y-91.5
X109.75Y-92.25
X109.75Y-106.0
X109.75Y-106.75
X109.75Y-107.5
X109.75Y-108.25
X109.75Y-122.0
X109.75Y-122.75
X109.75Y-123.5
X109.75Y-124.25
X111.25Y-141.7
X111.6Y-124.6
X111.6Y-125.3
X111.6Y-126.0
X112.3Y-124.6
X112.3Y-125.3
X112.3Y-126.0
X112.6Y-70.4
X112.6Y-71.1
X113.0Y-124.6
X113.0Y-125.3
X113.0Y-126.0
X113.3Y-70.4
X113.3Y-71.1
X114.0Y-57.4
X114.0Y-70.4
X114.0Y-71.1
X116.3Y-59.8
X116.35Y-140.0
X117.2Y-59.8
X117.35Y-140.0
X118.25Y-58.25
X118.25Y-59.0
X118.25Y-59.75
X118.25Y-60.5
X118.25Y-61.25
X122.5Y-59.635
X123.4Y-123.85
X124.1Y-123.85
X124.6Y-136.0
X124.8Y-123.85
X124.85Y-139.3
X125.6Y-136.0
X126.7Y-136.0
X127.3Y-131.5
X127.6Y-134.7
X128.8Y-70.3
X129.05Y-139.6
X129.5Y-70.3
X130.2Y-70.3
X130.475Y-139.4
X130.5Y-126.5
X130.6Y-57.1
X132.8Y-59.8
X132.8Y-137.4
X132.8Y-138.2
X133.7Y-59.8
X134.2Y-69.6
X134.2Y-70.3
X134.2Y-71.0
X134.2Y-132.4
X134.75Y-58.75
X134.75Y-59.5
X134.75Y-60.25
X134.75Y-61.0
X134.9Y-69.6
X134.9Y-70.3
X134.9Y-71.0
X135.55Y-66.4
X135.6Y-69.6
X135.6Y-70.3
X135.6Y-71.0
X136.1Y-131.1
X137.1Y-67.3
X137.1Y-68.0
X137.1Y-68.7
X137.5Y-135.918
X137.5Y-136.722
X137.8Y-67.3
X137.8Y-68.0
X137.8Y-68.7
X138.5Y-67.3
X138.5Y-68.0
X138.5Y-68.7
X138.7Y-137.9
X138.7Y-137.1
X139.0Y-133.0
X139.2Y-136.5
X139.2Y-128.7
X140.034Y-136.461
X140.7Y-137.0
X141.05Y-142.5
X141.1Y-138.3
X141.5Y-137.6
X141.8Y-132.4
X142.0Y-138.3
X142.1Y-142.5
X142.7Y-133.95
X142.712Y-133.017
X142.9Y-142.5
X143.75Y-142.5
X147.2Y-133.5
X147.2Y-134.6
X155.15Y-126.45
X155.15Y-128.75
X155.3Y-123.35
X155.3Y-121.85
X155.6Y-131.6
X160.25Y-72.55
X160.25Y-74.05
X161.4Y-123.1
X161.4Y-127.45
X162.75Y-75.0
X163.75Y-125.3
X164.15Y-74.7
X164.55Y-84.25
X164.55Y-84.95
X164.55Y-85.65
X165.25Y-84.25
X165.25Y-84.95
X165.25Y-85.65
X165.85Y-69.2
X165.95Y-84.25
X165.95Y-84.95
X165.95Y-85.65
X166.2Y-75.8
X166.4Y-128.95
X166.643Y-71.402
X167.35Y-143.9
X167.4Y-82.9
X167.5Y-73.4
X167.55Y-125.7
X168.1Y-82.9
X168.423Y-74.007
X168.5Y-77.5
X169.2Y-128.625
X169.2Y-129.475
X169.6Y-125.1
X169.6Y-131.3
X169.838Y-68.062
X170.3Y-83.15
X170.45Y-117.2
X170.45Y-118.1
X170.5Y-77.5
X170.75Y-68.05
X172.0Y-77.5
X172.7Y-66.3
X172.75Y-67.85
X173.0Y-116.85
X174.2Y-86.8
X174.2Y-87.5
X175.5Y-84.6
X175.5Y-85.3
X175.8Y-74.4
X175.8Y-75.1
X175.9Y-58.7
X176.5Y-65.0
X176.5Y-65.7
X176.5Y-66.4
X176.5Y-67.1
X176.5Y-74.4
X176.5Y-75.1
X176.5Y-75.8
X176.7Y-125.65
X176.7Y-132.15
X177.2Y-65.0
X177.2Y-65.7
X177.2Y-66.4
X177.2Y-67.1
X177.2Y-75.1
X177.2Y-75.8
X177.2Y-76.5
X177.9Y-65.0
X177.9Y-65.7
X177.9Y-76.5
X177.9Y-77.2
X178.15Y-105.9
X178.6Y-65.0
X178.6Y-65.7
X178.6Y-76.5
X178.6Y-77.2
X179.05Y-105.9
X179.2Y-82.675
X179.2Y-88.6
X179.2Y-91.675
X179.2Y-97.6
X179.2Y-100.675
X179.95Y-105.9
X180.5Y-67.4
X180.5Y-68.1
X180.5Y-74.2
X180.5Y-74.9
X181.1Y-79.6
X182.4Y-115.0
X184.05Y-84.0
X184.05Y-93.0
X184.05Y-102.0
T4
X103.9Y-135.2
X106.45Y-99.4
X107.1Y-126.3
X107.65Y-83.4
X111.85Y-105.9
X112.867Y-105.9
X113.873Y-105.9
X114.725Y-67.975
X114.95Y-105.9
X119.0Y-131.4
X119.9Y-131.4
X120.9Y-132.5
X121.8Y-132.5
X123.1Y-131.6
X124.1Y-131.6
X125.25Y-143.2
X156.45Y-138.6
X158.375Y-133.075
X160.1Y-57.9
X160.1Y-58.9
X160.1Y-59.9
X160.1Y-65.35
X160.1Y-66.35
X160.1Y-67.35
X160.8Y-118.1
X161.85Y-65.15
X161.877Y-118.1
X161.95Y-60.05
X162.84Y-132.53
X162.85Y-65.15
X162.883Y-118.1
X162.95Y-60.05
X163.17Y-114.1
X163.85Y-65.15
X163.9Y-118.1
X163.95Y-60.05
X164.247Y-114.1
X164.85Y-65.15
X164.95Y-60.05
X165.03Y-109.1
X165.05Y-91.9
X165.253Y-114.1
X165.95Y-59.15
X165.95Y-60.05
X165.95Y-60.95
X165.95Y-61.85
X165.95Y-62.75
X165.95Y-63.65
X166.067Y-91.9
X166.107Y-109.1
X166.27Y-114.1
X167.073Y-91.9
X167.113Y-109.1
X168.13Y-109.1
X168.15Y-91.9
X173.4Y-77.9
X174.5Y-82.4
X174.5Y-83.3
X176.575Y-88.725
X180.3Y-108.6
X180.3Y-117.4
X181.25Y-108.6
X181.25Y-117.4
X182.2Y-108.6
X182.2Y-117.4
T6
X99.0Y-59.0
X181.0Y-59.0
X181.0Y-141.0
X99.0Y-141.0
T5
X178.32Y-124.58G85X179.42Y-124.58
G05
X178.32Y-133.22G85X179.42Y-133.22
G05
X182.75Y-124.58G85X183.35Y-124.58
G05
X182.75Y-133.22G85X183.35Y-133.22
G05
X178.32Y-66.78G85X179.42Y-66.78
G05
X178.32Y-75.42G85X179.42Y-75.42
G05
X182.75Y-66.78G85X183.35Y-66.78
G05
X182.75Y-75.42G85X183.35Y-75.42
G05
T0
M30
